<svg version="1.1" id="Capa_1" xmlns="http://www.w3.org/2000/svg" xmlns:xlink="http://www.w3.org/1999/xlink" x="0px" y="0px" width="1920px" height="1080px" viewBox="0 0 1920 1080" enable-background="new 0 0 1920 1080" xml:space="preserve">
	<path d="M768.927,520.459l-27.468,61.235h12.51l5.248-11.547h32.017l5.162,11.547h12.597l-27.469-61.235H768.927z M763.854,559.387
	l11.372-26.069l11.372,26.069H763.854z" />
	<polygon points="928.141,520.458 916.594,520.458 916.594,581.694 959.633,581.694 959.633,571.021 928.141,571.021 " />
	<path d="M1111.061,550.026c5.686-2.536,7.961-7.086,7.961-11.81c0-12.334-9.012-17.759-21.082-17.759h-29.045v61.236h29.045
	c12.684,0,22.918-4.374,22.918-18.021C1120.857,559.824,1118.234,552.214,1111.061,550.026 M1080.268,530.956h17.672
	c7.348,0,9.621,4.724,9.621,7.523c0,3.499-2.361,6.562-9.621,6.562h-17.672V530.956z M1097.939,570.935h-17.672v-15.746h17.672
	c4.723,0,11.459,2.887,11.459,8.397C1109.398,569.359,1102.662,570.935,1097.939,570.935" />
	<polygon points="1230.295,581.694 1276.135,581.694 1276.135,570.322 1241.756,570.322 1241.756,556.5 1274.91,556.5 
	1274.91,545.74 1241.756,545.74 1241.756,531.656 1276.135,531.656 1276.135,520.458 1230.295,520.458 " />
	<path d="M1437.799,540.754c0-10.585-7.611-20.208-22.045-20.296c-9.711,0-19.422-0.086-29.131-0.086v61.322h11.547v-20.471h11.109
	l17.846,20.471h13.734v-0.787l-18.545-20.906C1433.949,557.638,1437.799,549.152,1437.799,540.754 M1398.17,550.814v-19.596h17.584
	c7.26,0,10.496,4.898,10.496,9.798c0,4.898-3.148,9.798-10.496,9.798H1398.17z" />
	<polygon points="1546.184,520.458 1546.184,530.956 1565.604,530.956 1565.604,581.694 1577.152,581.694 1577.152,530.956 
	1596.572,530.956 1596.572,520.458 " />
	<path d="M786.378,469.677c5.686-2.536,7.961-7.086,7.961-11.809c0-12.336-9.011-17.76-21.083-17.76h-29.043v61.236h29.043
	c12.685,0,22.919-4.374,22.919-18.021C796.175,479.475,793.551,471.864,786.378,469.677 M755.585,450.606h17.671
	c7.348,0,9.622,4.725,9.622,7.523c0,3.5-2.361,6.561-9.622,6.561h-17.671V450.606z M773.256,490.585h-17.671v-15.746h17.671
	c4.724,0,11.459,2.887,11.459,8.397C784.715,489.011,777.98,490.585,773.256,490.585" />
	<path d="M930.508,438.884c-21.17,0-31.492,16.185-31.492,32.28c0,16.097,9.972,31.58,31.492,31.58s31.23-15.834,31.406-31.668
	C962.088,455.068,951.592,438.884,930.508,438.884 M930.508,492.159c-14.435,0-19.857-10.76-20.121-20.82
	c-0.262-10.322,5.687-21.957,20.121-21.957s20.209,11.547,20.032,21.87C950.366,481.312,944.943,492.159,930.508,492.159" />
	<path d="M1118.117,460.404c0-10.586-7.611-20.208-22.045-20.295c-9.711,0-19.42-0.088-29.131-0.088v61.323h11.547v-20.471h11.109
	l17.848,20.471h13.732v-0.787l-18.545-20.907C1114.268,477.288,1118.117,468.802,1118.117,460.404 M1078.488,470.464V450.87h17.584
	c7.26,0,10.496,4.897,10.496,9.797c0,4.898-3.148,9.797-10.496,9.797H1078.488z" />
	<path d="M1251.828,450.869h18.297v24.319c0,9.272-4.857,16.533-15.262,16.533c-10.32,0-15.35-5.336-15.35-15.834h-11.273
	c0,17.321,11.1,26.682,26.623,26.682c16.736,0,26.709-11.547,26.709-27.381v-35.079h-29.744V450.869z" />
	<path d="M1413.047,440.108l-27.471,61.236h12.512l5.248-11.547h32.018l5.162,11.547h12.596l-27.469-61.236H1413.047z
	 M1407.973,479.038l11.373-26.069l11.371,26.069H1407.973z" />
	<path d="M579.696,473.52h-42.575v-33.41h42.575V473.52z M545.084,582.92l10.644-32.734h-18.607v-32.816h42.575v32.816
	l-18.604,32.734H545.084z" />
	<g>
		<path d="M596.195,583.506c6.854-12.135,11.843-23.986,14.966-35.557c3.121-11.571,4.682-23.577,4.682-36.017
		c0-12.438-1.562-24.443-4.682-36.016c-3.123-11.57-8.111-23.423-14.966-35.558h33.155c6.651,9.176,11.716,19.908,15.196,32.193
		c3.478,12.287,5.219,25.414,5.219,39.38c0,13.97-1.741,27.096-5.219,39.38c-3.48,12.285-8.545,23.016-15.196,32.193H596.195z" />
	</g>
	<path d="M577.833,440.109" />
</svg>
