<svg version="1.1" id="Capa_1" xmlns="http://www.w3.org/2000/svg" xmlns:xlink="http://www.w3.org/1999/xlink" x="0px" y="0px" width="700px" height="140px" viewBox="0 0 700 140" enable-background="new 0 0 700 140" xml:space="preserve">
	<path d="M157.678,76.456l-17.732,39.529h8.076l3.388-7.454h20.668l3.333,7.454h8.131L165.81,76.456H157.678z M154.403,101.587
	l7.341-16.832l7.341,16.832H154.403z" />
	<polygon points="260.458,76.454 253.004,76.454 253.004,115.985 280.789,115.985 280.789,109.096 260.458,109.096 " />
	<path d="M378.542,95.541c3.671-1.635,5.139-4.574,5.139-7.622c0-7.962-5.817-11.465-13.608-11.465h-18.751v39.531h18.751
	c8.188,0,14.793-2.823,14.793-11.633C384.865,101.867,383.173,96.956,378.542,95.541 M358.664,83.232h11.408
	c4.742,0,6.21,3.05,6.21,4.854c0,2.26-1.523,4.238-6.21,4.238h-11.408V83.232z M370.072,109.039h-11.408V98.873h11.408
	c3.048,0,7.397,1.865,7.397,5.424C377.47,108.022,373.12,109.039,370.072,109.039" />
	<polygon points="455.514,115.985 485.105,115.985 485.105,108.644 462.912,108.644 462.912,99.722 484.314,99.722 484.314,92.775 
	462.912,92.775 462.912,83.683 485.105,83.683 485.105,76.454 455.514,76.454 " />
	<path d="M589.468,89.558c0-6.834-4.913-13.047-14.23-13.104c-6.271,0-12.537-0.056-18.806-0.056v39.587h7.453v-13.214h7.173
	l11.521,13.214h8.866v-0.508l-11.974-13.498C586.982,100.456,589.468,94.979,589.468,89.558 M563.885,96.05V83.4h11.353
	c4.686,0,6.776,3.164,6.776,6.325c0,3.164-2.033,6.324-6.776,6.324H563.885z" />
	<polygon points="659.436,76.454 659.436,83.232 671.973,83.232 671.973,115.985 679.429,115.985 679.429,83.232 691.965,83.232 
	691.965,76.454 " />
	<path d="M168.943,43.672c3.671-1.637,5.14-4.574,5.14-7.622c0-7.964-5.817-11.466-13.61-11.466h-18.749v39.531h18.749
	c8.188,0,14.795-2.822,14.795-11.633C175.268,49.997,173.574,45.084,168.943,43.672 M149.065,31.361h11.407
	c4.744,0,6.211,3.051,6.211,4.857c0,2.259-1.524,4.234-6.211,4.234h-11.407V31.361z M160.473,57.17h-11.407V47.004h11.407
	c3.05,0,7.397,1.865,7.397,5.422C167.87,56.152,163.522,57.17,160.473,57.17" />
	<path d="M261.987,23.794c-13.666,0-20.33,10.448-20.33,20.839s6.438,20.386,20.33,20.386s20.161-10.22,20.273-20.442
	C282.373,34.242,275.598,23.794,261.987,23.794 M261.987,58.186c-9.318,0-12.819-6.945-12.989-13.439
	c-0.169-6.664,3.671-14.175,12.989-14.175c9.318,0,13.045,7.454,12.932,14.117C274.806,51.184,271.305,58.186,261.987,58.186" />
	<path d="M383.097,37.687c0-6.833-4.912-13.046-14.229-13.103c-6.271,0-12.539-0.056-18.807-0.056v39.587h7.454V50.9h7.172
	l11.521,13.215h8.864v-0.508l-11.971-13.496C380.612,48.586,383.097,43.107,383.097,37.687 M357.516,44.181V31.531h11.353
	c4.685,0,6.773,3.162,6.773,6.326c0,3.16-2.031,6.323-6.773,6.323H357.516z" />
	<path d="M469.414,31.531h11.811V47.23c0,5.986-3.134,10.673-9.852,10.673c-6.661,0-9.907-3.444-9.907-10.221h-7.279
	c0,11.182,7.166,17.224,17.187,17.224c10.806,0,17.243-7.454,17.243-17.676V24.584h-19.202V31.531z" />
	<path d="M573.489,24.584l-17.734,39.531h8.078l3.387-7.454h20.67l3.332,7.454h8.132l-17.732-39.531H573.489z M570.214,49.715
	l7.341-16.828l7.342,16.828H570.214z" />
	<path d="M35.519,46.152H8.035V24.584h27.484V46.152z M13.176,116.776l6.871-21.131H8.035V74.461h27.484v21.185l-12.01,21.131H13.176
	z" />
	<g>
		<path d="M46.17,117.156c4.425-7.835,7.645-15.485,9.661-22.956c2.015-7.468,3.023-15.22,3.023-23.249s-1.008-15.78-3.023-23.252
		c-2.016-7.468-5.236-15.119-9.661-22.953h21.402c4.294,5.924,7.564,12.852,9.811,20.781c2.244,7.934,3.369,16.407,3.369,25.424
		c0,9.019-1.125,17.49-3.369,25.421c-2.247,7.931-5.517,14.858-9.811,20.784H46.17z" />
	</g>
	<path d="M34.317,24.584" />
</svg>
