
<svg version="1.1" id="Capa_1" xmlns="http://www.w3.org/2000/svg" xmlns:xlink="http://www.w3.org/1999/xlink" x="0px" y="0px"
	 width="1920px" height="1980px" viewBox="0 0 1920 1980" enable-background="new 0 0 1920 1980" xml:space="preserve">
<path d="M853.739,614.733H524.646V356.48h329.093V614.733z M586.202,1460.373l82.272-253.029H524.646V953.681h329.093v253.663
	l-143.809,253.029H586.202z"/>
<g>
	<path d="M981.272,1464.902c52.983-93.799,91.546-185.409,115.683-274.845c24.121-89.44,36.191-182.242,36.191-278.404
		c0-96.139-12.07-188.941-36.191-278.396c-24.137-89.436-62.699-181.057-115.683-274.852h256.279
		c51.413,70.931,90.563,153.882,117.464,248.847c26.88,94.977,40.339,196.441,40.339,304.401
		c0,107.983-13.459,209.448-40.339,304.401c-26.9,94.961-66.051,177.905-117.464,248.848H981.272z"/>
</g>
<path d="M839.344,356.48"/>
</svg>
