
<svg version="1.1" id="Capa_1" xmlns="http://www.w3.org/2000/svg" xmlns:xlink="http://www.w3.org/1999/xlink" x="0px" y="0px"
	 width="400px" height="400px" viewBox="0 0 400 400" enable-background="new 0 0 400 400" xml:space="preserve">
<path d="M172.023,101.824H63.692V16.81h108.331V101.824z M83.955,380.195l27.083-83.289H63.692v-83.502h108.331v83.502
	l-47.34,83.289H83.955z"/>
<g>
	<path d="M214.007,381.693c17.439-30.883,30.133-61.037,38.077-90.484c7.942-29.436,11.916-59.99,11.916-91.638
		c0-31.648-3.974-62.2-11.916-91.65c-7.944-29.435-20.638-59.593-38.077-90.471h84.359c16.927,23.349,29.813,50.656,38.671,81.911
		c8.845,31.271,13.277,64.67,13.277,100.21c0,35.548-4.433,68.939-13.277,100.199c-8.857,31.26-21.744,58.566-38.671,81.924H214.007
		z"/>
</g>
</svg>
